<!DOCTYPE svg PUBLIC "-//W3C//DTD SVG 20010904//EN" "http://www.w3.org/TR/2001/REC-SVG-20010904/DTD/svg10.dtd">
<svg version="1.0" xmlns="http://www.w3.org/2000/svg" width="328px" height="373px" viewBox="0 0 3280 3730" preserveAspectRatio="xMidYMid meet">
<g id="layer101" fill="#005555" stroke="none">
</g>
<g id="layer102" fill="#004170" stroke="none">
<path d="M1860 3135 l135 -135 -298 -298 -297 -297 220 -220 220 -220 653 650 652 650 -650 -652 -650 -653 85 -85 85 -85 -123 -122 -122 -123 -85 85 -85 85 -163 -160 -162 -160 160 163 160 162 -220 220 -220 220 -160 -160 -160 -160 353 -353 352 -352 -126 -126 -127 -127 -130 130 -130 130 -350 -350 c-193 -193 -349 -354 -346 -357 3 -3 320 -4 705 -3 l699 3 -133 132 c-72 73 -132 136 -132 140 0 4 316 324 702 710 l703 703 137 -137 138 -138 -2 710 -3 710 -710 3 -710 2 135 -135z"/>
<path d="M310 1143 l0 -708 356 356 357 357 -353 351 c-194 193 -355 351 -356 351 -2 0 -4 -318 -4 -707z"/>
</g>
<g id="layer103" fill="#a65114" stroke="none">
<path d="M480 2910 c0 -368 3 -670 8 -670 9 0 1332 1323 1332 1333 0 4 -301 7 -670 7 l-670 0 0 -670z"/>
</g>
<g id="layer104" fill="#af8703" stroke="none">
<path d="M2293 807 c-370 -369 -673 -675 -673 -680 0 -4 306 -7 680 -7 l680 0 0 680 c0 374 -3 680 -7 680 -5 0 -311 -303 -680 -673z"/>
</g>
<g id="layer105" fill="#0083ca" stroke="none">
<path d="M2495 2610 l-650 -650 85 -85 85 -85 -123 -122 -122 -123 -85 85 -85 85 -160 -160 -160 -160 130 -130 130 -130 -126 -126 -127 -127 -130 130 -130 130 -350 -350 c-193 -193 -349 -354 -346 -357 3 -3 320 -4 705 -3 l699 3 -133 132 c-72 73 -132 136 -132 140 0 4 316 324 702 710 l703 703 137 -137 138 -138 0 708 c0 389 -1 707 -3 707 -1 0 -294 -292 -652 -650z"/>
</g>
<g id="layer106" fill="#ec681f" stroke="none">
<path d="M480 2912 c0 -369 3 -672 8 -672 11 0 662 654 662 665 0 6 -151 161 -335 345 l-335 335 0 -673z"/>
</g>
<g id="layer107" fill="#feca00" stroke="none">
<path d="M1952 467 c-182 -182 -332 -335 -332 -340 0 -4 307 -7 682 -7 l683 0 -340 340 c-187 187 -344 340 -350 340 -6 0 -160 -150 -343 -333z"/>
</g>


</svg>