<!DOCTYPE svg PUBLIC "-//W3C//DTD SVG 20010904//EN" "http://www.w3.org/TR/2001/REC-SVG-20010904/DTD/svg10.dtd">
<svg version="1.0" xmlns="http://www.w3.org/2000/svg" width="242px" height="302px" viewBox="0 0 2420 3020" preserveAspectRatio="xMidYMid meet">
<g id="layer101" fill="#003366" stroke="none">
<path d="M1004 2965 c-488 -86 -857 -431 -980 -914 l-24 -94 0 -978 0 -979 1205 0 1206 0 -3 978 -4 977 -26 100 c-122 460 -449 781 -913 896 -107 27 -347 34 -461 14z"/>
</g>
<g id="layer102" fill="#3f5456" stroke="none">
<path d="M1004 2965 c-488 -86 -857 -431 -980 -914 l-24 -94 0 -978 0 -979 1205 0 1206 0 -3 978 -4 977 -26 100 c-122 460 -449 781 -913 896 -107 27 -347 34 -461 14z m397 -60 c439 -77 797 -405 917 -842 l27 -98 3 -953 3 -952 -1151 0 -1150 0 -2 898 c-3 802 -1 907 14 995 42 247 155 466 329 638 75 75 203 167 296 215 67 34 221 84 306 99 99 18 307 18 408 0z"/>
<path d="M1038 2813 c-16 -2 -28 -9 -28 -14 0 -5 24 -28 54 -51 76 -59 56 -79 -39 -38 -85 36 -196 25 -289 -31 l-40 -23 35 -15 c23 -10 66 -15 136 -15 91 0 101 -1 93 -16 -5 -9 -16 -23 -25 -30 -8 -7 -22 -27 -29 -44 -16 -35 -36 -123 -29 -129 2 -3 26 7 52 22 53 28 141 124 141 152 0 10 5 21 10 24 6 3 10 14 10 24 0 13 14 20 58 29 51 11 68 10 137 -8 44 -11 82 -24 85 -28 4 -4 15 -29 25 -57 24 -65 68 -121 116 -145 21 -11 41 -20 44 -20 9 0 5 86 -6 121 -6 19 -19 50 -30 70 -25 48 -24 49 12 49 33 0 126 28 134 40 2 4 -8 19 -23 33 -45 43 -152 38 -222 -9 -39 -27 -68 -30 -94 -11 -16 11 -13 15 23 35 42 24 53 42 26 42 -9 0 -19 9 -23 21 -8 21 -8 21 -38 -4 -17 -14 -49 -33 -71 -42 -41 -16 -42 -16 -74 7 -18 13 -43 33 -57 46 -14 12 -30 21 -36 21 -6 -1 -23 -4 -38 -6z"/>
<path d="M1562 2576 c3 -63 1 -62 91 -46 62 12 147 46 147 59 0 24 -38 35 -136 39 l-104 4 2 -56z"/>
<path d="M655 2599 c-22 -3 -53 -12 -70 -21 l-30 -17 57 -26 c41 -19 73 -26 120 -26 61 -1 148 15 148 27 0 10 -44 44 -70 56 -29 12 -97 16 -155 7z"/>
<path d="M1820 2554 c-19 -14 -48 -32 -64 -39 l-29 -12 48 -29 c76 -44 225 -73 225 -44 0 42 -98 151 -134 150 -6 -1 -27 -12 -46 -26z"/>
<path d="M509 2533 c-36 -24 -79 -66 -91 -87 -10 -18 -7 -19 46 -12 56 6 136 33 136 45 0 3 -15 20 -33 38 -32 31 -34 32 -58 16z"/>
<path d="M1670 2484 c-14 -7 -40 -14 -59 -14 -31 0 -33 -2 -27 -26 11 -43 125 -204 145 -204 14 0 41 78 41 119 0 42 -19 90 -48 124 -17 20 -19 20 -52 1z"/>
<path d="M679 2428 c-19 -37 -28 -112 -16 -124 11 -12 84 32 130 78 58 58 60 70 8 62 -26 -4 -50 -1 -70 9 l-31 16 -21 -41z"/>
<path d="M1775 2430 c12 -20 16 -119 5 -139 -10 -20 -8 -21 47 -23 79 -2 108 0 181 13 l63 11 -21 23 c-25 26 -127 78 -210 106 -63 21 -74 23 -65 9z"/>
<path d="M550 2411 c-30 -9 -75 -27 -100 -39 -45 -22 -136 -99 -128 -108 7 -6 155 -6 197 0 61 10 71 16 71 45 0 16 7 45 16 66 8 21 12 41 7 45 -4 4 -33 0 -63 -9z"/>
<path d="M1041 2340 c-101 -27 -193 -81 -272 -159 -65 -66 -76 -80 -123 -176 -56 -111 -56 -118 -56 -787 l0 -618 610 0 610 0 0 618 c0 685 1 673 -66 811 -46 93 -151 202 -245 254 -134 75 -308 96 -458 57z m181 -97 c-2 -23 11 -160 27 -306 32 -272 31 -307 -4 -321 -32 -12 -72 -6 -90 14 -21 23 -19 75 19 400 15 125 22 218 16 224 -13 13 0 37 19 34 12 -3 15 -13 13 -45z m168 -730 c0 -10 -44 -13 -185 -13 -141 0 -185 3 -185 13 0 9 44 12 185 12 141 0 185 -3 185 -12z m-101 -120 c22 -92 31 -83 -80 -83 -54 0 -99 4 -99 9 0 5 5 32 12 60 l11 51 73 0 73 0 10 -37z m51 -163 c0 -6 -50 -10 -129 -10 -76 0 -132 4 -136 10 -4 6 42 10 129 10 84 0 136 -4 136 -10z m-25 -90 c-3 -6 -52 -10 -111 -10 -63 0 -104 4 -104 10 0 6 44 10 111 10 71 0 108 -4 104 -10z"/>
<path d="M593 2258 c-41 -51 -77 -168 -51 -168 29 0 89 53 113 99 26 52 24 61 -10 61 -11 0 -26 5 -31 10 -8 8 -14 7 -21 -2z"/>
<path d="M2092 2218 c5 -23 6 -53 3 -66 -4 -18 6 -36 52 -87 32 -35 61 -61 64 -57 15 15 -12 125 -40 166 -26 36 -74 86 -85 86 -2 0 0 -19 6 -42z"/>
<path d="M1812 2231 c-18 -11 37 -171 59 -171 21 0 38 121 21 146 -10 15 -67 33 -80 25z"/>
<path d="M269 2163 c-61 -64 -110 -145 -96 -160 8 -7 77 13 128 38 l36 18 -5 70 c-3 49 -1 75 8 86 7 8 8 15 3 15 -4 0 -38 -30 -74 -67z"/>
<path d="M1922 2188 c19 -89 91 -244 107 -233 16 9 37 89 36 135 -3 106 -30 140 -113 140 l-40 0 10 -42z"/>
<path d="M421 2202 c-19 -35 -33 -152 -26 -210 7 -53 8 -55 22 -37 28 37 62 120 77 185 9 35 14 65 13 66 -1 1 -19 4 -39 8 -30 5 -39 3 -47 -12z"/>
<path d="M2091 2013 c0 -32 -5 -73 -11 -92 -5 -19 -9 -35 -7 -36 1 0 27 -17 58 -38 30 -20 59 -37 62 -37 12 0 7 85 -8 136 -14 46 -67 124 -85 124 -4 0 -8 -26 -9 -57z"/>
<path d="M295 1955 c-25 -55 -48 -136 -40 -143 3 -3 87 34 126 55 3 2 9 -18 13 -44 3 -26 16 -67 28 -91 20 -41 22 -43 35 -27 9 13 13 50 13 112 l0 93 -42 -2 c-43 -3 -43 -3 -68 49 -14 29 -28 53 -32 53 -4 0 -19 -25 -33 -55z"/>
<path d="M1941 1951 c-19 -34 -13 -134 10 -185 l21 -47 28 44 c15 25 32 47 37 50 4 3 9 -23 10 -57 2 -69 31 -157 68 -201 22 -27 24 -28 25 -10 0 12 4 25 9 30 15 16 34 159 21 163 -43 15 -200 180 -200 211 0 20 -19 21 -29 2z"/>
<path d="M2205 1950 c4 -11 7 -53 7 -92 1 -70 12 -97 42 -98 15 0 0 123 -20 168 -19 42 -41 59 -29 22z"/>
<path d="M172 1898 c-23 -29 -42 -94 -42 -144 0 -51 15 -104 30 -104 4 0 27 15 51 34 l44 33 3 -48 c2 -27 10 -66 19 -86 l15 -37 24 39 c30 49 41 85 48 153 6 64 -5 72 -70 47 -24 -9 -51 -14 -59 -11 -16 6 -39 80 -36 114 3 24 -11 29 -27 10z"/>
<path d="M366 992 c-40 -29 -51 -33 -65 -24 -42 31 -75 51 -79 47 -2 -2 4 -27 13 -55 9 -28 15 -52 14 -54 -43 -26 -89 -60 -86 -62 2 -2 28 -5 57 -6 l55 -3 20 -62 c11 -35 24 -63 29 -63 4 0 6 7 2 15 -3 8 2 35 12 60 l16 45 58 0 c32 0 58 3 58 8 0 4 -20 21 -45 37 -24 17 -45 33 -45 37 0 4 9 31 20 60 11 28 18 53 17 54 -1 1 -24 -14 -51 -34z"/>
<path d="M2150 995 c-25 -19 -48 -35 -53 -35 -4 0 -26 14 -49 30 -23 17 -43 28 -46 26 -2 -3 4 -28 13 -56 9 -28 15 -52 14 -54 -43 -26 -89 -60 -86 -62 2 -2 28 -5 57 -6 l55 -3 20 -62 c11 -35 24 -63 29 -63 4 0 6 7 3 15 -4 8 1 35 9 60 l16 45 59 0 c33 0 59 4 59 10 0 6 -3 10 -7 10 -5 0 -25 15 -46 33 l-39 32 21 55 c11 29 19 55 18 56 -1 1 -22 -13 -47 -31z"/>
<path d="M210 518 c0 -2 9 -31 19 -66 l19 -62 -49 -33 -50 -32 62 -5 62 -5 20 -57 c12 -32 25 -58 30 -58 4 0 6 4 3 8 -3 5 2 32 11 60 l17 52 60 0 61 1 -25 21 c-14 11 -35 28 -48 38 -18 14 -20 23 -14 42 17 43 22 78 14 78 -5 0 -26 -13 -46 -29 l-37 -30 -45 30 c-24 17 -44 35 -44 40 0 5 -4 9 -10 9 -5 0 -10 -1 -10 -2z"/>
<path d="M1106 493 c4 -16 13 -45 20 -65 l13 -38 -50 -32 -50 -33 62 -5 63 -5 20 -57 c21 -60 36 -74 36 -37 0 12 5 39 12 60 l11 39 61 0 61 1 -25 21 c-14 11 -35 28 -47 38 -21 16 -21 19 -7 65 8 27 12 50 9 53 -2 2 -23 -9 -45 -26 l-42 -30 -44 30 c-24 16 -44 34 -44 39 0 5 -5 9 -10 9 -6 0 -8 -11 -4 -27z"/>
<path d="M1990 518 c0 -2 9 -31 19 -66 l19 -62 -49 -33 -50 -32 62 -5 62 -5 20 -57 c12 -32 25 -58 30 -58 4 0 6 4 3 8 -3 5 2 32 11 60 l17 52 60 0 61 1 -25 21 c-14 11 -35 28 -48 38 -18 14 -20 23 -14 42 17 43 22 78 14 78 -5 0 -26 -13 -46 -29 l-37 -30 -45 30 c-24 17 -44 35 -44 40 0 5 -4 9 -10 9 -5 0 -10 -1 -10 -2z"/>
<path d="M660 507 c0 -2 9 -29 19 -60 l20 -57 -22 -11 c-12 -6 -33 -21 -45 -33 l-24 -21 58 -5 58 -5 16 -52 c9 -29 18 -54 21 -57 3 -4 13 21 22 54 l17 60 61 0 62 0 -47 35 c-51 40 -52 44 -31 105 8 23 15 44 15 46 0 6 -52 -27 -77 -49 l-22 -20 -45 37 c-40 33 -56 42 -56 33z"/>
<path d="M1550 507 c0 -2 9 -29 19 -60 l20 -57 -22 -11 c-12 -6 -33 -21 -45 -33 l-24 -21 58 -5 58 -5 16 -52 c17 -57 30 -77 30 -48 0 11 7 39 16 62 l17 43 60 0 60 0 -47 35 c-51 40 -52 44 -31 105 8 23 15 44 15 46 0 6 -52 -27 -77 -49 l-22 -20 -45 37 c-40 33 -56 42 -56 33z"/>
</g>
<g id="layer103" fill="#e1081e" stroke="none">
<path d="M1109 2350 c-233 -37 -426 -208 -496 -440 -15 -48 -17 -134 -20 -682 l-4 -628 611 0 611 0 -3 628 -3 627 -27 80 c-47 137 -152 269 -270 338 -111 65 -275 97 -399 77z m116 -66 c11 -12 13 -20 5 -29 -7 -9 -1 -101 22 -310 l32 -297 -27 -24 c-30 -26 -57 -30 -87 -14 -42 22 -42 38 -10 323 17 149 29 287 26 306 -3 19 0 41 6 48 13 16 13 16 33 -3z m7 -754 c150 0 169 -2 166 -16 -3 -14 -28 -16 -191 -17 -165 -2 -187 0 -187 14 0 21 11 31 28 24 7 -3 90 -5 184 -5z m66 -151 c20 -83 25 -79 -94 -79 l-106 0 6 28 c4 15 12 44 17 65 l10 37 78 0 78 0 11 -51z m50 -141 c-3 -9 -43 -14 -140 -16 -114 -2 -137 0 -142 13 -5 13 14 15 140 15 112 0 145 -3 142 -12z m-30 -100 c-3 -9 -37 -14 -110 -16 -87 -2 -107 0 -111 13 -6 13 9 15 109 15 88 0 115 -3 112 -12z"/>
</g>
<g id="layer104" fill="#fc8a15" stroke="none">
<path d="M1004 2965 c-488 -86 -857 -431 -980 -914 l-24 -94 0 -978 0 -979 1205 0 1206 0 -3 978 -4 977 -26 100 c-122 460 -449 781 -913 896 -107 27 -347 34 -461 14z m333 -46 c132 -14 249 -50 378 -114 233 -115 405 -287 520 -520 60 -120 98 -239 114 -359 7 -51 11 -391 11 -977 l0 -899 -1160 0 -1160 0 0 888 c0 585 4 918 11 977 49 397 315 753 683 914 195 85 388 114 603 90z"/>
<path d="M1109 2350 c-233 -37 -426 -208 -496 -440 -15 -48 -17 -134 -20 -682 l-4 -628 611 0 611 0 -3 628 -3 627 -27 80 c-47 137 -152 269 -270 338 -111 65 -275 97 -399 77z m116 -66 c11 -12 13 -20 5 -29 -7 -9 -1 -101 22 -310 l32 -297 -27 -24 c-30 -26 -57 -30 -87 -14 -42 22 -42 38 -10 323 17 149 29 287 26 306 -3 19 0 41 6 48 13 16 13 16 33 -3z m7 -754 c150 0 169 -2 166 -16 -3 -14 -28 -16 -191 -17 -165 -2 -187 0 -187 14 0 21 11 31 28 24 7 -3 90 -5 184 -5z m66 -151 c20 -83 25 -79 -94 -79 l-106 0 6 28 c4 15 12 44 17 65 l10 37 78 0 78 0 11 -51z m50 -141 c-3 -9 -43 -14 -140 -16 -114 -2 -137 0 -142 13 -5 13 14 15 140 15 112 0 145 -3 142 -12z m-30 -100 c-3 -9 -37 -14 -110 -16 -87 -2 -107 0 -111 13 -6 13 9 15 109 15 88 0 115 -3 112 -12z m49 -138 c8 -28 8 -48 -1 -90 l-13 -55 -21 35 c-12 19 -24 40 -26 45 -7 15 -26 -17 -26 -44 0 -13 5 -53 11 -88 6 -35 8 -79 5 -98 l-7 -35 -31 57 c-17 32 -39 75 -50 96 -10 20 -21 37 -24 37 -4 0 -3 -28 0 -63 4 -34 3 -73 -2 -87 -9 -24 -10 -23 -37 30 -16 30 -33 75 -40 100 l-11 45 -19 -33 c-11 -17 -22 -32 -26 -32 -11 0 -22 144 -14 171 15 49 19 50 174 47 l146 -3 12 -35z m3 -249 c-1 -14 -6 -36 -13 -48 -10 -19 -12 -13 -13 44 0 57 1 63 13 47 7 -10 13 -29 13 -43z"/>
</g>
<g id="layer105" fill="#fdac2b" stroke="none">
<path d="M1004 2965 c-493 -87 -868 -442 -985 -931 -18 -77 -19 -121 -17 -905 3 -775 4 -824 21 -827 16 -3 17 38 17 760 0 805 3 876 46 1028 30 107 118 285 183 370 237 313 621 491 1006 466 122 -8 178 -18 283 -52 64 -21 69 -17 32 21 -27 28 -48 38 -124 56 -117 28 -344 35 -462 14z"/>
<path d="M1159 2356 c-2 -2 -24 -6 -49 -9 -67 -9 -181 -51 -242 -89 -74 -48 -170 -155 -207 -230 -66 -133 -64 -119 -68 -720 l-4 -547 106 -74 c61 -43 100 -77 93 -80 -7 -3 220 -6 505 -6 l518 -1 -3 628 c-4 590 -5 630 -23 681 -13 35 -27 56 -42 62 -27 10 -523 356 -539 375 -11 13 -36 19 -45 10z m71 -77 c8 -14 8 -24 1 -33 -7 -8 0 -102 22 -305 l31 -293 -27 -24 c-16 -13 -39 -24 -53 -24 -26 0 -74 40 -74 62 0 7 12 110 26 228 14 118 27 256 29 305 2 50 4 93 4 98 2 15 31 6 41 -14z m2 -749 c149 0 169 -2 166 -16 -3 -13 -28 -16 -191 -17 -165 -2 -187 0 -187 14 0 21 11 31 28 24 7 -3 90 -5 184 -5z m66 -151 c20 -83 25 -79 -93 -79 -58 0 -105 3 -105 6 0 6 20 92 26 112 2 8 28 12 82 12 l79 0 11 -51z m50 -141 c-3 -9 -43 -14 -140 -16 -114 -2 -137 0 -142 13 -5 13 14 15 140 15 112 0 145 -3 142 -12z m-30 -100 c-3 -9 -37 -14 -110 -16 -87 -2 -107 0 -111 13 -6 13 9 15 109 15 88 0 115 -3 112 -12z m48 -125 c14 -31 14 -46 4 -95 -11 -49 -15 -56 -27 -46 -8 7 -19 22 -24 35 -5 13 -13 23 -18 23 -17 0 -21 -46 -9 -125 11 -81 6 -141 -12 -130 -6 3 -10 12 -10 19 0 8 -16 40 -35 72 -19 32 -35 64 -35 71 0 7 -4 13 -9 13 -4 0 -6 -30 -4 -67 2 -38 0 -75 -6 -83 -12 -17 -9 -20 -44 52 -16 32 -31 73 -34 93 l-6 36 -25 -38 -26 -37 -12 72 c-13 78 -7 121 22 153 15 17 33 19 156 19 l139 0 15 -37z m4 -269 c0 -17 -8 -42 -17 -53 -17 -21 -18 -20 -15 51 3 65 5 71 18 53 8 -10 14 -33 14 -51z"/>
<path d="M2346 1978 c4 -12 10 -452 11 -975 l4 -953 -1066 0 -1065 0 16 -25 16 -25 1074 0 1074 0 0 938 c0 515 -4 953 -9 973 -4 19 -21 48 -36 63 -27 27 -27 27 -19 4z"/>
</g>
<g id="layer106" fill="#bab8b9" stroke="none">
<path d="M1038 2813 c-16 -2 -28 -8 -28 -13 0 -11 98 -90 111 -90 5 0 9 -4 9 -10 0 -16 -50 -11 -110 10 -99 35 -216 21 -285 -34 l-30 -24 30 -13 c18 -8 71 -13 132 -13 69 0 100 -3 96 -10 -4 -6 -17 -25 -30 -42 -26 -35 -53 -106 -53 -140 0 -24 0 -24 38 -9 58 25 130 101 153 166 l20 55 58 12 c50 11 67 10 136 -8 44 -11 82 -24 85 -28 4 -4 14 -28 24 -54 24 -66 69 -124 115 -147 34 -18 40 -19 45 -5 16 41 5 84 -51 212 -3 8 3 12 19 12 39 0 125 29 131 44 3 8 -5 23 -17 35 -37 35 -122 31 -200 -9 -50 -25 -71 -30 -95 -25 -32 7 -53 25 -29 25 7 0 26 11 43 24 l30 24 -24 19 -24 20 -46 -28 c-77 -47 -91 -47 -155 5 -30 25 -59 45 -63 45 -5 -1 -20 -4 -35 -6z"/>
<path d="M1563 2579 c4 -29 8 -54 11 -56 3 -3 35 0 73 7 69 11 147 46 145 65 -1 16 -82 33 -161 34 l-74 1 6 -51z"/>
<path d="M655 2600 c-22 -4 -53 -13 -70 -22 l-30 -17 57 -26 c41 -19 73 -26 120 -26 65 -1 148 16 147 29 0 4 -14 18 -30 31 -34 26 -124 41 -194 31z"/>
<path d="M1798 2542 c-31 -20 -57 -40 -58 -44 0 -4 28 -21 63 -38 74 -36 197 -54 197 -28 0 38 -102 150 -134 147 -6 0 -37 -17 -68 -37z"/>
<path d="M508 2532 c-35 -23 -79 -65 -90 -86 -10 -18 -7 -19 46 -12 48 5 136 32 136 41 0 2 -16 19 -35 38 -32 32 -36 33 -57 19z"/>
<path d="M1675 2484 c-16 -7 -45 -13 -62 -14 -20 0 -33 -5 -33 -12 0 -24 59 -115 108 -169 l49 -53 16 49 c22 64 21 107 -2 154 -28 53 -40 61 -76 45z"/>
<path d="M677 2422 c-26 -59 -26 -112 0 -112 31 0 102 50 131 93 l30 42 -47 0 c-25 0 -58 3 -72 7 -23 7 -28 4 -42 -30z"/>
<path d="M1785 2353 l0 -83 50 -2 c70 -2 101 1 174 14 l65 11 -30 23 c-44 36 -140 85 -203 104 l-56 17 0 -84z"/>
<path d="M540 2407 c-75 -25 -152 -72 -195 -118 l-30 -32 120 6 c141 6 155 10 155 46 0 14 5 43 11 64 6 21 9 42 7 47 -2 5 -32 -1 -68 -13z"/>
<path d="M566 2212 c-32 -62 -44 -122 -24 -122 29 0 89 53 113 99 l24 49 -27 6 c-15 4 -35 9 -44 12 -13 4 -24 -8 -42 -44z"/>
<path d="M2094 2181 c2 -57 4 -61 59 -120 l57 -62 0 48 c0 54 -24 112 -64 161 -42 48 -54 42 -52 -27z"/>
<path d="M1814 2192 c7 -44 45 -132 57 -132 11 0 29 60 29 99 0 49 -10 61 -55 68 l-38 6 7 -41z"/>
<path d="M1924 2184 c6 -44 88 -234 101 -234 16 0 37 81 37 140 -1 90 -12 116 -59 129 -21 6 -49 11 -62 11 -22 0 -23 -2 -17 -46z"/>
<path d="M265 2158 c-54 -57 -105 -141 -94 -153 7 -6 99 19 135 38 l31 16 -4 73 c-3 40 -6 77 -7 82 -1 4 -29 -21 -61 -56z"/>
<path d="M411 2173 c-17 -60 -23 -154 -14 -198 l9 -40 26 45 c27 46 61 139 71 198 l7 32 -45 0 c-42 0 -44 -1 -54 -37z"/>
<path d="M2095 2013 c-3 -27 -10 -66 -15 -88 -5 -21 -8 -40 -7 -40 1 0 27 -17 58 -38 30 -20 59 -37 62 -37 12 0 7 85 -7 134 -14 47 -59 116 -76 116 -5 0 -12 -21 -15 -47z"/>
<path d="M313 1984 c-21 -30 -47 -97 -58 -147 -5 -26 -4 -28 17 -22 13 4 43 18 67 31 24 13 45 24 46 24 1 0 5 -21 9 -47 3 -26 16 -67 28 -91 20 -41 22 -43 35 -27 9 13 13 50 13 112 l0 93 -42 -2 c-43 -3 -43 -3 -69 51 l-26 53 -20 -28z"/>
<path d="M1934 1934 c-10 -37 2 -133 21 -178 l16 -38 29 45 c15 24 32 47 37 50 4 3 9 -23 10 -57 2 -64 30 -154 62 -195 l19 -24 15 30 c14 27 42 162 35 168 -2 1 -20 11 -40 24 -43 25 -141 129 -163 172 -19 36 -33 37 -41 3z"/>
<path d="M2212 1874 c1 -68 5 -92 17 -101 26 -20 31 -15 31 36 0 50 -14 103 -36 135 -12 17 -13 8 -12 -70z"/>
<path d="M169 1883 c-25 -30 -39 -71 -39 -116 0 -48 17 -117 29 -117 4 0 29 16 55 35 l46 36 1 -43 c0 -50 20 -113 34 -113 32 1 91 203 66 228 -4 4 -29 0 -57 -8 -27 -8 -54 -15 -61 -15 -16 0 -33 33 -47 88 -11 41 -12 42 -27 25z"/>
<path d="M220 1012 c0 -4 7 -30 16 -56 16 -45 15 -48 -2 -61 -11 -7 -30 -22 -44 -34 l-25 -20 35 -2 c76 -3 74 -1 95 -62 l21 -57 19 55 18 55 59 0 c32 0 58 3 58 8 0 6 -34 32 -83 63 -6 4 -3 26 8 58 9 29 15 54 13 57 -3 2 -22 -9 -44 -26 -47 -36 -49 -36 -88 -7 -44 33 -56 39 -56 29z"/>
<path d="M2000 1012 c0 -4 7 -30 16 -56 16 -45 15 -48 -2 -61 -11 -7 -30 -22 -44 -34 l-25 -20 35 -2 c76 -3 74 -1 95 -62 l21 -58 18 56 17 55 60 0 c33 0 59 4 59 10 0 6 -3 10 -7 10 -5 0 -25 15 -46 33 l-38 32 17 48 c9 26 14 50 12 52 -3 3 -22 -8 -44 -25 -21 -16 -43 -30 -47 -30 -5 0 -23 11 -40 24 -44 32 -57 39 -57 28z"/>
<path d="M220 498 c0 -7 8 -32 17 -57 19 -49 22 -43 -55 -100 l-27 -20 61 -1 61 0 18 -60 c10 -33 22 -60 27 -60 5 0 7 4 4 8 -3 5 2 32 11 60 l17 52 60 1 61 0 -29 22 c-71 54 -68 47 -51 101 8 27 13 51 10 54 -2 3 -19 -6 -37 -20 -18 -13 -38 -27 -44 -31 -6 -4 -32 9 -58 29 -25 19 -46 29 -46 22z"/>
<path d="M660 508 c0 -3 9 -30 19 -60 l19 -56 -46 -33 -47 -34 60 -5 59 -5 15 -47 c8 -27 17 -48 21 -48 3 0 14 23 24 50 l18 50 60 0 61 0 -47 35 c-51 40 -52 44 -31 105 8 23 15 45 15 47 0 3 -22 -12 -49 -32 l-50 -36 -50 37 c-28 20 -51 34 -51 32z"/>
<path d="M1110 502 c0 -5 7 -30 17 -57 18 -54 21 -47 -55 -104 l-27 -20 61 -1 60 0 18 -55 c9 -30 22 -57 28 -61 6 -4 8 -3 5 3 -3 5 1 33 10 61 l17 52 60 1 61 0 -29 22 c-71 54 -68 47 -51 101 8 27 13 51 10 54 -2 3 -19 -6 -37 -20 -18 -13 -38 -27 -44 -31 -6 -4 -32 9 -58 29 -25 19 -46 31 -46 26z"/>
<path d="M1550 508 c0 -3 9 -30 19 -60 l19 -56 -46 -33 -47 -34 60 -5 59 -5 15 -47 c8 -27 17 -48 21 -48 3 0 14 23 24 50 l18 50 60 0 61 0 -47 35 c-51 40 -52 44 -31 105 8 23 15 45 15 47 0 3 -22 -12 -49 -32 l-50 -36 -50 37 c-28 20 -51 34 -51 32z"/>
<path d="M2000 493 c0 -4 8 -27 17 -52 19 -49 22 -43 -55 -100 l-27 -20 61 -1 61 0 18 -60 c10 -33 22 -60 27 -60 5 0 7 4 4 8 -3 5 2 32 11 60 l17 52 60 1 61 0 -29 22 c-71 54 -68 47 -51 101 8 27 13 51 10 54 -2 3 -19 -6 -37 -20 -52 -39 -53 -39 -94 -8 -39 30 -54 36 -54 23z"/>
</g>
<g id="layer107" fill="#e5e5e5" stroke="none">
<path d="M1041 2806 l-23 -13 38 -31 c22 -18 50 -41 64 -52 l25 -19 -41 -1 c-23 0 -54 6 -69 14 -40 21 -142 29 -199 16 -49 -11 -120 -56 -111 -70 8 -14 78 -22 164 -20 l84 1 -18 -27 c-10 -15 -27 -43 -38 -62 l-21 -35 23 -18 c13 -11 34 -19 46 -19 32 0 91 74 111 139 14 48 17 51 49 51 18 0 46 5 60 10 15 6 32 7 38 3 7 -5 43 -15 82 -23 66 -15 70 -18 80 -50 28 -87 81 -157 141 -189 19 -9 22 -7 27 17 8 40 -12 123 -38 157 -27 35 -133 92 -187 100 -38 6 -53 25 -20 25 11 0 7 5 -12 15 -18 10 -41 13 -61 9 -37 -7 -63 4 -119 53 -45 37 -43 37 -75 19z"/>
<path d="M1566 2621 c-3 -5 -3 -23 0 -39 9 -45 48 -58 121 -40 31 7 58 18 60 23 6 18 -93 65 -135 65 -23 0 -43 -4 -46 -9z"/>
<path d="M650 2597 c-25 -5 -48 -12 -52 -16 -11 -10 98 -70 130 -73 37 -2 112 12 112 21 0 9 -95 63 -125 72 -11 3 -40 1 -65 -4z"/>
<path d="M1806 2541 c-16 -9 -31 -21 -33 -27 -6 -18 119 -82 174 -90 l52 -6 -8 28 c-5 22 -25 40 -77 71 -38 23 -71 42 -74 42 -3 0 -18 -8 -34 -18z"/>
<path d="M460 2489 c-41 -41 -28 -54 44 -45 76 10 89 29 37 55 -22 12 -42 21 -45 21 -2 0 -19 -14 -36 -31z"/>
<path d="M1580 2457 c0 -31 83 -137 125 -161 l43 -24 11 44 c6 24 9 54 6 67 -13 49 -185 117 -185 74z"/>
<path d="M675 2420 c-34 -66 -4 -116 52 -86 38 21 73 52 73 64 0 11 -78 52 -98 52 -6 0 -18 -13 -27 -30z"/>
<path d="M1790 2352 c0 -48 4 -61 18 -67 44 -18 84 -21 143 -11 l64 12 -98 57 c-136 80 -127 80 -127 9z"/>
<path d="M455 2368 c-53 -31 -95 -67 -95 -79 0 -3 13 -12 28 -18 21 -9 50 -9 113 -2 46 6 85 11 86 11 2 0 3 17 3 38 0 34 -4 41 -39 60 -21 12 -40 22 -42 21 -2 0 -26 -14 -54 -31z"/>
<path d="M572 2217 c-15 -19 -34 -86 -27 -97 12 -20 43 -9 74 25 17 20 31 39 31 43 0 5 -15 16 -34 25 -26 12 -37 13 -44 4z"/>
<path d="M1813 2207 c3 -9 9 -31 12 -50 4 -20 16 -45 28 -57 18 -20 22 -21 32 -7 6 9 9 31 7 49 -3 27 -12 38 -44 57 -31 18 -40 20 -35 8z"/>
<path d="M2099 2173 c-2 -47 1 -53 43 -91 67 -61 72 -62 63 -7 -9 61 -20 78 -67 105 l-38 21 -1 -28z"/>
<path d="M1930 2178 c1 -53 57 -170 90 -188 16 -8 20 -5 30 24 10 32 14 65 11 96 0 9 -27 30 -60 48 -65 36 -71 37 -71 20z"/>
<path d="M245 2138 c-15 -18 -35 -47 -43 -66 -14 -29 -14 -34 -2 -43 19 -12 65 -4 106 18 30 15 31 18 22 57 -8 37 -30 66 -49 66 -4 0 -19 -14 -34 -32z"/>
<path d="M404 2128 c-5 -24 -8 -67 -6 -96 3 -43 6 -53 20 -50 20 4 53 68 66 129 4 20 0 28 -23 42 -41 24 -47 22 -57 -25z"/>
<path d="M2095 1978 c-13 -77 -13 -77 43 -109 l52 -31 1 34 c3 69 -10 99 -50 119 -14 7 -29 15 -33 17 -4 2 -9 -12 -13 -30z"/>
<path d="M286 1928 c-8 -18 -17 -48 -21 -65 -6 -29 -4 -33 15 -33 11 0 40 9 62 20 23 11 43 18 46 15 2 -2 7 -24 9 -49 6 -46 35 -90 56 -83 7 2 13 30 15 67 3 57 1 66 -20 82 -13 10 -33 18 -46 18 -12 0 -25 7 -29 15 -5 14 -52 45 -68 45 -3 0 -12 -15 -19 -32z"/>
<path d="M2216 1902 c-10 -16 2 -94 15 -103 22 -14 29 -11 29 14 0 57 -28 114 -44 89z"/>
<path d="M1936 1844 c8 -70 34 -136 43 -114 14 33 53 90 62 90 5 0 7 -11 3 -25 -6 -25 9 -109 29 -157 10 -24 63 -65 72 -56 8 8 31 123 28 138 -2 8 -20 26 -40 40 -20 14 -56 41 -80 60 -23 19 -61 45 -84 58 l-41 24 8 -58z"/>
<path d="M140 1808 c-12 -43 -6 -104 12 -125 16 -20 34 -16 71 17 l34 30 7 -60 c5 -46 12 -62 27 -71 12 -6 22 -9 24 -7 13 15 36 73 41 105 6 37 4 39 -30 56 -20 9 -50 17 -66 17 -21 0 -34 8 -47 28 -18 28 -43 51 -55 52 -4 0 -12 -19 -18 -42z"/>
<path d="M220 1011 c0 -6 7 -29 17 -52 13 -34 14 -45 4 -61 -7 -11 -9 -24 -4 -28 4 -5 28 -25 52 -45 43 -35 45 -36 53 -16 6 18 16 21 68 21 58 0 79 12 43 25 -10 3 -30 16 -46 30 -25 23 -27 27 -18 67 6 23 8 44 5 47 -2 2 -20 -8 -41 -22 l-36 -26 -30 22 c-62 47 -67 50 -67 38z"/>
<path d="M2000 1011 c0 -6 7 -29 17 -52 13 -34 14 -45 4 -61 -7 -11 -9 -24 -4 -28 4 -5 28 -25 52 -45 43 -35 45 -36 53 -16 6 18 16 21 68 21 33 0 60 3 60 8 -1 4 -21 20 -46 36 -47 30 -49 34 -28 109 7 24 -6 21 -46 -8 l-33 -24 -29 22 c-63 47 -68 50 -68 38z"/>
<path d="M237 445 c15 -51 15 -57 -1 -68 -15 -11 -11 -17 34 -52 63 -50 70 -52 77 -26 5 18 13 21 66 21 l61 0 -47 33 c-49 33 -54 47 -37 93 15 37 6 41 -39 16 l-38 -22 -34 23 c-19 13 -39 26 -46 30 -8 5 -7 -10 4 -48z"/>
<path d="M670 488 c0 -7 7 -31 14 -53 12 -34 12 -42 0 -56 -13 -14 -8 -21 36 -58 48 -41 70 -46 70 -15 0 11 15 14 66 14 l66 0 -48 34 c-34 23 -48 39 -46 52 2 11 6 34 9 52 l5 34 -42 -27 -42 -27 -44 32 c-27 19 -44 26 -44 18z"/>
<path d="M1127 445 c15 -51 15 -57 -1 -68 -15 -11 -11 -17 34 -52 63 -50 70 -52 77 -26 5 18 13 21 66 21 l60 0 -37 29 c-21 16 -42 31 -47 33 -7 2 -7 18 0 48 5 24 8 47 5 49 -2 3 -22 -5 -43 -17 l-38 -22 -34 23 c-19 13 -39 26 -46 30 -8 5 -7 -10 4 -48z"/>
<path d="M1560 488 c0 -7 7 -31 14 -53 12 -34 12 -42 0 -56 -13 -14 -8 -21 36 -58 48 -41 70 -46 70 -15 0 11 15 14 66 14 l66 0 -48 34 c-34 23 -48 39 -46 52 2 11 6 34 9 52 l5 34 -41 -28 -42 -27 -44 32 c-27 20 -45 27 -45 19z"/>
<path d="M2018 444 c14 -50 14 -55 -2 -67 -15 -11 -11 -16 34 -52 63 -50 70 -52 77 -26 5 18 13 21 66 21 l60 0 -37 29 c-21 16 -42 32 -49 34 -9 3 -9 14 0 48 6 24 10 46 7 48 -2 3 -23 -6 -45 -18 -40 -23 -41 -23 -62 -3 -12 11 -31 24 -43 30 -21 11 -21 11 -6 -44z"/>
</g>


</svg>